<?xml version="1.0" encoding="utf-8"?>
<!-- Generator: Adobe Illustrator 24.3.0, SVG Export Plug-In . SVG Version: 6.00 Build 0)  -->
<svg version="1.1" id="Layer_1" xmlns="http://www.w3.org/2000/svg" xmlns:xlink="http://www.w3.org/1999/xlink" x="0px" y="0px"
	 viewBox="0 0 114.3 21.1" style="enable-background:new 0 0 114.3 21.1;" xml:space="preserve">
<style type="text/css">
	.st0{fill:#FFFFFF;}
</style>
<g>
	<path class="st0" d="M16,0.3c-5.6,0-10.1,4.6-10.1,10.3c0,5.6,4.5,10.2,10.1,10.2s10.1-4.6,10.1-10.2C26.1,4.9,21.6,0.3,16,0.3z
		 M21.3,0.8c3.4,1.9,5.8,5.6,5.8,9.8s-2.3,7.9-5.8,9.8c4.3-1.3,7.3-5.3,7.3-9.8C28.5,6,25.6,2,21.3,0.8z M16.2,2.7c0.5,0,1,0.5,1,1
		V4c1,0.2,1.9,0.5,2.7,0.9c0.4,0.2,0.7,0.6,0.7,1.2c0,0.7-0.6,1.3-1.3,1.3c-0.2,0-0.5-0.1-0.7-0.2c-0.5-0.3-1.1-0.5-1.6-0.7v2.9
		c2.9,0.8,4.1,2,4.1,4.2c0,2.1-1.7,3.5-4.1,3.7v1c0,0.6-0.4,1-1,1c-0.5,0-1-0.5-1-1v-1c-1.3-0.2-2.6-0.7-3.7-1.4
		c-0.4-0.3-0.6-0.6-0.6-1.2c0-0.7,0.6-1.3,1.3-1.3c0.2,0,0.5,0.1,0.7,0.3c0.8,0.5,1.5,0.9,2.4,1.1v-3c-2.7-0.8-4.1-1.8-4-4.1
		c0-2.1,1.6-3.5,4-3.7V3.8C15.2,3.2,15.6,2.7,16.2,2.7z M15.2,6.3c-0.9,0.2-1.3,0.6-1.3,1.2c0,0.6,0.3,1,1.3,1.4V6.3z M17,12.3V15
		c0.9-0.1,1.4-0.5,1.4-1.2C18.3,13.1,18,12.6,17,12.3z"/>
	<g>
		<path class="st0" d="M37.8,5h6.5v1.7h-4.4v2.7h3.3v1.7h-3.3v4.4h-2.1V5z"/>
		<path class="st0" d="M49.5,15.6c-2.4,0-4.2-1.7-4.2-4.3c0-2.6,1.9-4.3,4.3-4.3s4.3,1.7,4.3,4.3C53.8,14,51.9,15.6,49.5,15.6z
			 M49.5,13.8c1.1,0,2.2-0.8,2.2-2.5c0-1.7-1-2.5-2.1-2.5s-2.1,0.8-2.1,2.5C47.4,13,48.3,13.8,49.5,13.8z"/>
		<path class="st0" d="M57.4,15.5h-2.1V7.2h2.1v1.3C58,7.6,58.8,7.1,60,7.1v2.2h-0.6c-1.2,0-2,0.5-2,2.1V15.5z"/>
		<path class="st0" d="M65,15.6c-2.4,0-4.2-1.7-4.2-4.3c0-2.6,1.7-4.3,4.2-4.3c2.4,0,4.1,1.6,4.1,4.1c0,0.3,0,0.5-0.1,0.8H63
			c0.1,1.2,0.9,1.9,2,1.9c0.9,0,1.4-0.5,1.7-1h2.3C68.5,14.4,67.1,15.6,65,15.6z M63,10.6H67c0-1.1-0.9-1.8-2-1.8
			C64,8.8,63.2,9.4,63,10.6z"/>
		<path class="st0" d="M74.3,15.6c-2.2,0-3.9-1.1-3.9-3.1h2.2c0.1,0.8,0.6,1.4,1.6,1.4c1,0,1.6-0.5,1.6-1.3c0-2.3-5.4-0.9-5.4-4.7
			c0-1.9,1.5-3,3.7-3c2.1,0,3.6,1.1,3.8,3h-2.3c0-0.7-0.6-1.2-1.5-1.2c-0.8,0-1.4,0.4-1.4,1.2c0,2.1,5.4,0.9,5.4,4.6
			C78,14.1,76.7,15.6,74.3,15.6z"/>
		<path class="st0" d="M79.6,5c0-0.7,0.5-1.2,1.3-1.2c0.7,0,1.3,0.5,1.3,1.2c0,0.7-0.6,1.2-1.3,1.2C80.1,6.2,79.6,5.7,79.6,5z
			 M79.8,7.2h2.1v8.3h-2.1V7.2z"/>
		<path class="st0" d="M87.2,7.1c1.3,0,2.2,0.6,2.7,1.3V7.2h2.1v8.4c0,2.2-1.4,4-4.1,4c-2.3,0-4-1.2-4.2-3.1h2.1
			c0.2,0.8,1,1.2,2,1.2c1.2,0,2.1-0.7,2.1-2.2v-1.3c-0.5,0.7-1.4,1.4-2.7,1.4c-2.1,0-3.8-1.7-3.8-4.3S85.1,7.1,87.2,7.1z M87.8,8.9
			c-1.1,0-2.2,0.8-2.2,2.4s1.1,2.5,2.2,2.5c1.2,0,2.2-0.9,2.2-2.4C90,9.8,88.9,8.9,87.8,8.9z"/>
		<path class="st0" d="M94.1,4.4h2.1v3.8c0.5-0.7,1.5-1.2,2.6-1.2c1.9,0,3.2,1.3,3.2,3.6v4.9H100v-4.6c0-1.3-0.7-2.1-1.8-2.1
			c-1.1,0-1.9,0.7-1.9,2.1v4.6h-2.1V4.4z"/>
		<path class="st0" d="M104.4,8.9h-1V7.2h1V5.1h2.1v2.1h1.9v1.7h-1.9v4c0,0.6,0.2,0.8,0.9,0.8h1v1.8H107c-1.6,0-2.7-0.7-2.7-2.6V8.9
			z"/>
	</g>
</g>
</svg>
